<?xml version="1.0" encoding="iso-8859-1"?>
<!-- Generator: Adobe Illustrator 25.3.0, SVG Export Plug-In . SVG Version: 6.00 Build 0)  -->
<svg version="1.1" id="Calque_2" xmlns="http://www.w3.org/2000/svg" xmlns:xlink="http://www.w3.org/1999/xlink" x="0px" y="0px"
	 viewBox="0 0 2400.953 2167.407" style="enable-background:new 0 0 2400.953 2167.407;" xml:space="preserve">
<g>
	<path style="fill-rule:evenodd;clip-rule:evenodd;fill:#FAB848;" d="M1360.038,2077.993
		c-593.677,0-1074.949-481.269-1074.949-1074.948c0-237.687,77.145-457.357,207.758-635.336
		c-173.765,190.952-279.688,444.73-279.688,723.252c0,593.678,481.269,1074.946,1074.95,1074.946
		c355.99,0,671.561-173.046,867.188-439.609C1958.674,1942.367,1675.196,2077.993,1360.038,2077.993"/>
	<path style="fill:#663333;" d="M1360.038,2076.493c-296.429-0.001-564.782-120.147-759.043-314.405
		c-194.259-194.26-314.406-462.612-314.406-759.043c0.001-237.361,77.036-456.715,207.467-634.449l-2.319-1.897
		c-174.005,191.214-280.079,445.356-280.078,724.262c0.001,594.507,481.939,1076.445,1076.45,1076.446
		c356.484,0,672.501-173.289,868.397-440.222l-2.319-1.897C1957.833,1941.059,1674.761,2076.492,1360.038,2076.493v3
		c315.594,0,599.476-135.818,796.368-352.186l-1.109-1.01l-1.209-0.888c-195.359,266.195-510.482,438.997-865.978,438.997
		c-296.432-0.001-564.785-120.147-759.045-314.405c-194.258-194.26-314.405-462.612-314.405-759.042
		c0.001-278.138,105.773-531.553,279.297-722.242l-1.109-1.01l-1.209-0.888c-130.795,178.225-208.049,398.21-208.048,636.224
		c0.001,594.508,481.943,1076.446,1076.449,1076.447V2076.493L1360.038,2076.493z"/>
	<path style="fill-rule:evenodd;clip-rule:evenodd;fill:#FAB848;" d="M464.08,1149.121c48.2-27.83,78.122-75.165,85.549-126.276
		c-47.982-19.126-103.935-16.884-152.135,10.945c-48.205,27.83-78.122,75.165-85.549,126.278
		C359.924,1179.197,415.88,1176.95,464.08,1149.121"/>
	<path style="fill:#663333;" d="M464.83,1150.42c48.611-28.067,78.796-75.814,86.283-127.36l0.17-1.171l-1.099-0.438
		c-20.777-8.282-43.034-12.591-65.52-12.591c-29.888-0.001-60.182,7.615-87.92,23.631c-48.616,28.066-78.796,75.815-86.283,127.362
		l-0.17,1.171l1.099,0.438c20.773,8.282,43.029,12.591,65.514,12.591C406.792,1174.053,437.09,1166.435,464.83,1150.42l-1.5-2.598
		c-27.276,15.747-57.046,23.23-86.427,23.23c-22.101,0-43.981-4.236-64.403-12.378l-0.555,1.394l1.484,0.216
		c7.366-50.68,37.02-97.602,84.814-125.195c27.274-15.747,57.041-23.228,86.42-23.229c22.103,0,43.985,4.236,64.409,12.378
		l0.556-1.393l-1.484-0.216c-7.366,50.678-37.025,97.6-84.814,125.193L464.83,1150.42L464.83,1150.42z"/>
	<path style="fill-rule:evenodd;clip-rule:evenodd;fill:#FAB848;" d="M52.663,1102.4c-39.358-39.356-56.008-92.823-49.951-144.114
		c51.295-6.055,104.763,10.592,144.119,49.949c39.356,39.358,56.008,92.824,49.946,144.116
		C145.485,1158.409,92.017,1141.758,52.663,1102.4"/>
	<path style="fill:#663333;" d="M53.724,1101.339C19.883,1067.5,3.002,1023.152,3,978.799c0-6.791,0.404-13.583,1.202-20.337
		l-1.49-0.176l0.176,1.49c6.765-0.799,13.567-1.201,20.37-1.201c44.345,0.002,88.681,16.889,122.513,50.721
		c33.801,33.804,50.718,78.089,50.72,122.391c0,6.843-0.399,13.685-1.203,20.489l1.49,0.176l-0.176-1.49
		c-6.841,0.808-13.723,1.201-20.606,1.201C131.733,1152.061,87.495,1135.112,53.724,1101.339l-2.121,2.121
		c34.347,34.35,79.369,51.604,124.392,51.602c6.998,0,13.997-0.4,20.958-1.222l1.175-0.139l0.139-1.175
		c0.818-6.921,1.223-13.881,1.223-20.841c0.002-45.061-17.218-90.131-51.599-124.512c-34.411-34.412-79.533-51.601-124.634-51.599
		c-6.921,0-13.841,0.409-20.721,1.222l-1.175,0.139l-0.139,1.175C0.411,964.98,0,971.889,0,978.799
		c-0.002,45.109,17.18,90.243,51.602,124.662L53.724,1101.339L53.724,1101.339z"/>
	<path style="fill-rule:evenodd;clip-rule:evenodd;fill:#FAB848;" d="M437.029,989.627c49.268-13.198,86.973-47.998,105.669-91.479
		c-37.932-28.304-87.981-39.585-137.25-26.385c-49.26,13.196-86.969,47.998-105.661,91.477
		C337.715,991.546,387.768,1002.827,437.029,989.627"/>
	<path style="fill:#663333;" d="M437.417,991.076c49.726-13.321,87.792-48.452,106.659-92.335l0.467-1.087l-0.948-0.708
		c-27.5-20.52-61.312-32.177-96.615-32.177c-13.843,0-27.915,1.792-41.92,5.545c-49.718,13.319-87.788,48.451-106.651,92.333
		l-0.467,1.087l0.948,0.708c27.498,20.522,61.311,32.178,96.612,32.178C409.344,996.621,423.414,994.828,437.417,991.076
		l-0.776-2.898c-13.749,3.684-27.556,5.443-41.139,5.443c-34.638,0-67.827-11.439-94.818-31.583l-0.897,1.202l1.378,0.592
		c18.521-43.075,55.87-77.546,104.671-90.62c13.751-3.684,27.559-5.443,41.144-5.443c34.64,0,67.828,11.439,94.821,31.581
		l0.897-1.202l-1.378-0.593c-18.525,43.078-55.87,77.546-104.679,90.622L437.417,991.076L437.417,991.076z"/>
	<path style="fill-rule:evenodd;clip-rule:evenodd;fill:#FAB848;" d="M80.391,882.908C54.888,838.74,52.834,787.47,70.36,743.507
		c46.831,6.806,90.205,34.222,115.708,78.392c25.499,44.163,27.556,95.438,10.026,139.399
		C149.264,954.494,105.891,927.075,80.391,882.908"/>
	<path style="fill:#663333;" d="M81.69,882.157c-14.42-24.973-21.27-52.227-21.271-79.125c0-20.237,3.879-40.271,11.334-58.97
		l-1.393-0.555l-0.216,1.484c46.398,6.745,89.359,33.899,114.625,77.657c14.417,24.97,21.266,52.223,21.267,79.122
		c0,20.238-3.879,40.273-11.335,58.971l1.393,0.556l0.216-1.484C149.913,953.07,106.953,925.914,81.69,882.157l-2.598,1.5
		c25.736,44.578,69.522,72.259,116.786,79.124l1.171,0.17l0.438-1.099c7.596-19.051,11.548-39.462,11.548-60.083
		c0.001-27.407-6.984-55.189-21.669-80.622c-25.74-44.58-69.527-72.259-116.791-79.126l-1.171-0.17l-0.438,1.099
		c-7.595,19.051-11.547,39.46-11.547,60.081c-0.001,27.407,6.984,55.189,21.673,80.626L81.69,882.157L81.69,882.157z"/>
	<path style="fill-rule:evenodd;clip-rule:evenodd;fill:#FAB848;" d="M444.63,827.106c44.954-12.043,79.356-43.796,96.417-83.47
		c-34.609-25.829-80.281-36.121-125.23-24.08c-44.953,12.045-79.36,43.8-96.416,83.472
		C354.005,828.859,399.684,839.151,444.63,827.106"/>
	<path style="fill:#663333;" d="M445.018,828.555c45.412-12.165,80.175-44.249,97.407-84.327l0.467-1.087l-0.948-0.708
		c-25.115-18.743-55.998-29.389-88.24-29.389c-12.641,0-25.489,1.636-38.276,5.062c-45.411,12.167-80.179,44.254-97.406,84.329
		l-0.467,1.087l0.948,0.708c25.11,18.744,55.993,29.389,88.233,29.39C419.379,833.619,432.229,831.982,445.018,828.555l-0.776-2.898
		c-12.534,3.359-25.122,4.962-37.505,4.962c-31.577,0-61.836-10.428-86.439-28.794l-0.897,1.202l1.378,0.592
		c16.885-39.269,50.931-70.693,95.426-82.616c12.532-3.358,25.118-4.96,37.499-4.96c31.579,0,61.837,10.428,86.446,28.793
		l0.897-1.202l-1.378-0.593c-16.89,39.271-50.931,70.693-95.427,82.614L445.018,828.555L445.018,828.555z"/>
	<path style="fill-rule:evenodd;clip-rule:evenodd;fill:#FAB848;" d="M474.142,682.962c41.111-11.013,72.576-40.049,88.176-76.33
		c-31.651-23.622-73.418-33.033-114.524-22.02c-41.107,11.015-72.572,40.051-88.168,76.332
		C391.269,684.563,433.035,693.977,474.142,682.962"/>
	<path style="fill:#663333;" d="M474.531,684.411c41.569-11.135,73.395-40.503,89.166-77.186l0.467-1.087l-0.948-0.708
		c-22.99-17.157-51.257-26.902-80.769-26.902c-11.572,0-23.335,1.498-35.04,4.635c-41.566,11.137-73.391,40.505-89.158,77.188
		l-0.467,1.087l0.948,0.708c22.984,17.156,51.249,26.9,80.76,26.9C451.061,689.046,462.824,687.547,474.531,684.411l-0.776-2.898
		c-11.452,3.068-22.952,4.533-34.266,4.533c-28.849,0-56.489-9.528-78.966-26.305l-0.897,1.202l1.378,0.592
		c15.425-35.877,46.529-64.582,87.178-75.475c11.451-3.068,22.951-4.533,34.264-4.533c28.849,0,56.493,9.527,78.975,26.306
		l0.897-1.202l-1.378-0.593c-15.429,35.877-46.533,64.582-87.186,75.473L474.531,684.411L474.531,684.411z"/>
	<path style="fill-rule:evenodd;clip-rule:evenodd;fill:#FAB848;" d="M207.662,565.867c-21.28-36.852-22.999-79.634-8.376-116.319
		c39.083,5.676,75.275,28.554,96.552,65.412c21.283,36.856,22.998,79.636,8.371,116.321
		C265.131,625.6,228.937,602.724,207.662,565.867"/>
	<path style="fill:#663333;" d="M208.961,565.116c-12.011-20.801-17.718-43.501-17.718-65.907c0-16.851,3.229-33.535,9.437-49.106
		l-1.393-0.555l-0.216,1.484c38.649,5.615,74.429,28.23,95.468,64.677c12.011,20.801,17.717,43.498,17.718,65.901
		c0,16.854-3.231,33.54-9.441,49.114l1.393,0.556l0.216-1.484C265.78,624.176,230,601.563,208.961,565.116l-2.598,1.5
		c21.512,37.269,58.119,60.407,97.63,66.148l1.171,0.17l0.438-1.099c6.35-15.927,9.654-32.988,9.654-50.225
		c0.001-22.911-5.84-46.137-18.119-67.401c-21.513-37.269-58.119-60.409-97.635-66.146l-1.171-0.17l-0.438,1.099
		c-6.347,15.923-9.65,32.982-9.65,50.217c-0.001,22.914,5.84,46.143,18.12,67.408L208.961,565.116L208.961,565.116z"/>
	<path style="fill-rule:evenodd;clip-rule:evenodd;fill:#FAB848;" d="M715.33,238.978L597.558,472.386
		c-23.265-16.731-52.475-25.402-83.238-22.399c-38.78,3.789-71.56,25.303-91.089,55.734c25.047,26.081,61.366,40.845,100.147,37.058
		c38.781-3.785,71.561-25.299,91.09-55.73L715.33,238.978z"/>
	<path style="fill:#663333;" d="M715.33,238.978l-1.339-0.676L596.219,471.71l1.339,0.676l0.876-1.218
		c-20.456-14.711-45.46-23.269-72.088-23.269c-4.024,0-8.085,0.195-12.172,0.595c-39.252,3.834-72.441,25.616-92.205,56.417
		l-0.639,0.996l0.82,0.854c22.709,23.648,54.581,38.106,89.198,38.107c4.026,0,8.088-0.196,12.177-0.595
		c39.253-3.83,72.443-25.612,92.207-56.413l0.075-0.117l100.913-248.198l-2.729-1.241L715.33,238.978l-1.39-0.565L613.079,486.484
		l1.39,0.565l-1.262-0.81c-19.295,30.062-51.664,51.308-89.973,55.047c-3.992,0.39-7.958,0.58-11.886,0.58
		c-33.774,0-64.869-14.105-87.034-37.185l-1.082,1.039l1.262,0.81c19.295-30.062,51.664-51.308,89.972-55.051
		c3.99-0.39,7.953-0.58,11.88-0.58c25.982,0,50.371,8.347,70.336,22.704l1.424,1.024l118.562-234.974L715.33,238.978l-1.39-0.565
		L715.33,238.978z"/>
	<path style="fill-rule:evenodd;clip-rule:evenodd;fill:#FAB848;" d="M311.326,401.766c-10.082-37.636-1.461-75.883,20.165-104.861
		L528.285,115.29L351.163,307.581c23.828,15.899,42.198,40.208,50.221,70.058c10.086,37.64,1.465,75.885-20.165,104.863
		C348.003,468.22,321.416,439.408,311.326,401.766"/>
	<path style="fill:#663333;" d="M312.775,401.378c-2.805-10.471-4.144-20.987-4.144-31.333c0-26.39,8.716-51.68,24.062-72.244
		l-1.202-0.897l1.017,1.102l169.633-156.549l-153.27,166.396l1.459,0.974c23.538,15.707,41.678,39.709,49.605,69.199
		c2.806,10.473,4.146,20.991,4.146,31.339c0,26.389-8.716,51.675-24.065,72.238l1.202,0.897l0.592-1.378
		C348.998,467.013,322.742,438.562,312.775,401.378l-2.898,0.777c10.212,38.099,37.13,67.272,70.749,81.725l1.087,0.467l0.708-0.948
		c15.727-21.07,24.66-46.981,24.66-74.033c0-10.606-1.374-21.387-4.248-32.116c-8.119-30.211-26.719-54.826-50.837-70.917
		l-0.833,1.248l1.103,1.016l177.122-192.291l-2.121-2.119L330.372,295.897l-0.083,0.111c-15.725,21.071-24.658,46.985-24.658,74.038
		c0,10.604,1.373,21.383,4.246,32.109L312.775,401.378L312.775,401.378z"/>
	<path style="fill-rule:evenodd;clip-rule:evenodd;fill:#FAB848;" d="M529.61,243.515c23.285-27.675,55.715-43.114,89.145-45.619
		l-0.444,0.034L797.974,1.011L634.665,211.69c3.115,33.226-6.573,67.634-29.755,95.186c-26.483,31.473-64.792,47.123-102.942,45.914
		C494.26,315.406,503.127,274.988,529.61,243.515"/>
	<path style="fill:#663333;" d="M530.758,244.481c23.018-27.356,55.062-42.611,88.109-45.089l-0.227-2.991l-0.444,0.034l0.115,1.496
		l1.108,1.011L773.884,29.639l-140.768,181.6l0.055,0.59c0.373,3.982,0.56,7.982,0.561,11.984
		c-0.001,29.008-9.833,58.162-29.97,82.096c-25.239,29.993-61.331,45.442-97.686,45.444c-1.354,0-2.708-0.021-4.061-0.064
		l-0.047,1.499l1.469-0.303c-1.759-8.53-2.645-17.22-2.645-25.924C500.793,297.559,510.621,268.411,530.758,244.481l-2.295-1.931
		c-20.604,24.484-30.672,54.336-30.671,84.014c0,8.907,0.906,17.8,2.707,26.53l0.239,1.159l1.183,0.037
		c1.385,0.044,2.77,0.066,4.156,0.066c37.199,0.002,74.155-15.82,99.982-46.513c20.604-24.488,30.675-54.345,30.674-84.028
		c0-4.096-0.191-8.189-0.573-12.264l-1.493,0.14l1.185,0.919L799.159,1.93L796.865,0L614.65,199.716l4.219-0.324l-0.227-2.991
		c-33.813,2.532-66.628,18.155-90.18,46.149L530.758,244.481L530.758,244.481z"/>
	<path style="fill-rule:evenodd;clip-rule:evenodd;fill:#FAB848;" d="M133.879,699.833c-23.269-40.299-25.15-87.082-9.153-127.197
		c42.734,6.208,82.309,31.225,105.577,71.526s25.146,87.084,9.153,127.199C196.722,765.154,157.143,740.133,133.879,699.833"/>
	<path style="fill:#663333;" d="M135.178,699.083c-13.145-22.767-19.392-47.614-19.392-72.138c0-18.447,3.536-36.709,10.333-53.754
		l-1.393-0.556l-0.216,1.484c42.301,6.147,81.462,30.901,104.494,70.792c13.145,22.768,19.39,47.614,19.39,72.137
		c0,18.447-3.536,36.71-10.331,53.756l1.393,0.556l0.216-1.484C197.371,763.73,158.206,738.972,135.178,699.083l-2.598,1.5
		c23.501,40.71,63.492,65.994,106.66,72.263l1.171,0.17l0.438-1.099c6.936-17.398,10.545-36.036,10.545-54.867
		c0.001-25.031-6.379-50.406-19.792-73.637c-23.505-40.712-63.493-65.992-106.661-72.261l-1.171-0.17l-0.438,1.099
		c-6.938,17.397-10.547,36.035-10.547,54.865c-0.001,25.032,6.38,50.407,19.794,73.638L135.178,699.083L135.178,699.083z"/>
	<path style="fill-rule:evenodd;clip-rule:evenodd;fill:#FAB848;" d="M1333.257,1860.384c465.927,0,843.634-377.707,843.634-843.634
		c0-186.541-60.545-358.939-163.051-498.621c136.369,149.86,219.504,349.03,219.504,567.617
		c0,465.926-377.707,843.633-843.634,843.633c-279.386,0-527.052-135.809-680.58-345.011
		C863.44,1753.94,1085.921,1860.384,1333.257,1860.384"/>
	<path style="fill:#663333;" d="M1333.257,1861.883c466.756-0.001,845.132-378.378,845.134-845.134
		c0.001-186.868-60.654-359.581-163.341-499.508l-1.209,0.888l-1.11,1.01c136.129,149.598,219.113,348.404,219.114,566.608
		c-0.001,232.553-94.257,443.077-246.655,595.478c-152.401,152.398-362.925,246.654-595.479,246.655
		c-278.892,0-526.111-135.565-679.371-344.398l-1.209,0.888l-1.109,1.01C862.6,1755.248,1085.485,1861.884,1333.257,1861.883v-3
		c-246.901-0.001-468.977-106.252-623.018-275.526l-2.319,1.897c153.796,209.571,401.91,345.623,681.789,345.623
		c466.756-0.001,845.132-378.378,845.134-845.133c0.001-218.971-83.285-418.504-219.894-568.627l-2.319,1.897
		c102.324,139.435,162.759,311.518,162.76,497.733c-0.001,232.554-94.257,443.078-246.655,595.479
		c-152.401,152.398-362.925,246.654-595.479,246.655V1861.883L1333.257,1861.883z"/>
	<path style="fill-rule:evenodd;clip-rule:evenodd;fill:#FAB848;" d="M2036.414,1131.39c-37.828-21.84-61.307-58.989-67.138-99.102
		c37.657-15.01,81.57-13.25,119.399,8.59c37.828,21.842,61.312,58.992,67.139,99.106
		C2118.16,1154.995,2074.246,1153.233,2036.414,1131.39"/>
	<path style="fill:#663333;" d="M2037.164,1130.09c-37.417-21.603-60.633-58.339-66.403-98.019l-1.484,0.216l0.555,1.393
		c15.991-6.374,33.124-9.691,50.429-9.691c23.003,0.001,46.308,5.857,67.664,18.187c37.417,21.605,60.638,58.342,66.404,98.023
		l1.485-0.216l-0.556-1.394c-15.989,6.375-33.12,9.691-50.424,9.691C2081.83,1148.28,2058.522,1142.422,2037.164,1130.09l-1.5,2.598
		c21.822,12.599,45.657,18.593,69.17,18.592c17.688,0,35.194-3.389,51.535-9.904l1.099-0.438l-0.17-1.171
		c-5.888-40.548-29.634-78.111-67.873-100.189c-21.82-12.598-45.653-18.589-69.164-18.588c-17.689,0-35.197,3.39-51.54,9.904
		l-1.1,0.438l0.17,1.171c5.892,40.546,29.633,78.109,67.872,100.185L2037.164,1130.09L2037.164,1130.09z"/>
	<path style="fill-rule:evenodd;clip-rule:evenodd;fill:#FAB848;" d="M2359.3,1094.724c30.89-30.886,43.957-72.849,39.202-113.102
		c-40.254-4.753-82.218,8.312-113.104,39.2c-30.891,30.888-43.957,72.846-39.202,113.104
		C2286.454,1138.682,2328.414,1125.614,2359.3,1094.724"/>
	<path style="fill:#663333;" d="M2360.36,1095.785c27.059-27.055,40.594-62.532,40.593-97.993c0-5.459-0.321-10.918-0.961-16.346
		l-0.139-1.175l-1.175-0.139c-5.404-0.638-10.839-0.962-16.275-0.961c-35.484-0.002-70.992,13.514-98.065,40.59
		c-27.079,27.075-40.595,62.578-40.593,98.064c0,5.436,0.323,10.872,0.962,16.276l0.138,1.175l1.175,0.139
		c5.512,0.651,11.054,0.961,16.592,0.961C2297.997,1136.378,2333.369,1122.779,2360.36,1095.785l-2.121-2.121
		c-26.417,26.418-61.007,39.711-95.627,39.713c-5.426,0-10.85-0.304-16.24-0.941l-0.176,1.49l1.49-0.176
		c-0.625-5.289-0.941-10.607-0.941-15.924c0.002-34.729,13.217-69.447,39.715-95.942c26.493-26.495,61.215-39.71,95.943-39.712
		c5.317,0,10.635,0.316,15.924,0.941l0.176-1.49l-1.49,0.176c0.627,5.311,0.941,10.653,0.941,15.994
		c-0.002,34.703-13.235,69.394-39.714,95.871L2360.36,1095.785L2360.36,1095.785z"/>
	<path style="fill-rule:evenodd;clip-rule:evenodd;fill:#FAB848;" d="M2057.646,1006.219
		c-38.666-10.358-68.258-37.669-82.929-71.794c29.767-22.212,69.048-31.066,107.714-20.708
		c38.661,10.358,68.253,37.669,82.924,71.794C2135.589,1007.723,2096.305,1016.577,2057.646,1006.219"/>
	<path style="fill:#663333;" d="M2058.034,1004.77c-38.208-10.236-67.439-37.216-81.939-70.938l-1.378,0.593l0.897,1.202
		c21.129-15.767,47.109-24.722,74.224-24.721c10.632,0,21.44,1.376,32.204,4.26c38.203,10.236,67.434,37.216,81.934,70.938
		l1.378-0.592l-0.897-1.202c-21.129,15.767-47.111,24.721-74.224,24.721C2079.602,1009.029,2068.795,1007.653,2058.034,1004.77
		l-0.776,2.898c11.015,2.951,22.085,4.362,32.976,4.362c27.776,0,54.382-9.172,76.018-25.317l0.948-0.708l-0.467-1.087
		c-14.842-34.528-44.794-62.171-83.914-72.651c-11.019-2.952-22.089-4.362-32.981-4.362c-27.778,0-54.382,9.172-76.018,25.317
		l-0.948,0.708l0.468,1.087c14.842,34.528,44.794,62.171,83.919,72.651L2058.034,1004.77L2058.034,1004.77z"/>
	<path style="fill-rule:evenodd;clip-rule:evenodd;fill:#FAB848;" d="M2337.54,922.463c20.018-34.661,21.629-74.9,7.875-109.402
		c-36.757,5.341-70.794,26.859-90.808,61.521c-20.014,34.661-21.629,74.902-7.875,109.402
		C2283.488,978.643,2317.526,957.127,2337.54,922.463"/>
	<path style="fill:#663333;" d="M2338.839,923.213c11.558-20.012,17.054-41.873,17.053-63.438c0-16.224-3.11-32.282-9.084-47.27
		l-0.438-1.099l-1.171,0.17c-37.19,5.402-71.641,27.182-91.891,62.256c-11.556,20.013-17.053,41.876-17.053,63.442
		c0,16.223,3.108,32.279,9.083,47.266l0.438,1.099l1.171-0.17C2284.137,980.067,2318.589,958.288,2338.839,923.213l-2.598-1.5
		c-19.777,34.254-53.402,55.507-89.725,60.787l0.216,1.484l1.393-0.556c-5.835-14.635-8.87-30.316-8.87-46.155
		c0.001-21.058,5.363-42.393,16.651-61.942c19.777-34.252,53.401-55.507,89.724-60.787l-0.216-1.484l-1.394,0.555
		c5.834,14.636,8.871,30.319,8.871,46.159c-0.001,21.057-5.362,42.389-16.651,61.938L2338.839,923.213L2338.839,923.213z"/>
	<path style="fill-rule:evenodd;clip-rule:evenodd;fill:#FAB848;" d="M2051.681,878.67c-35.28-9.451-62.28-34.373-75.669-65.509
		c27.163-20.27,63.007-28.347,98.282-18.898c35.28,9.453,62.284,34.375,75.669,65.509
		C2122.804,880.044,2086.956,888.121,2051.681,878.67"/>
	<path style="fill:#663333;" d="M2052.069,877.221c-34.822-9.329-61.461-33.92-74.679-64.652l-1.378,0.593l0.897,1.202
		c19.259-14.372,42.94-22.533,67.652-22.533c9.689,0,19.537,1.254,29.345,3.881c34.822,9.331,61.465,33.921,74.679,64.652
		l1.378-0.592l-0.897-1.202c-19.256,14.372-42.937,22.534-67.649,22.533C2071.726,881.103,2061.876,879.849,2052.069,877.221
		l-0.776,2.898c10.062,2.696,20.175,3.984,30.124,3.984c25.375,0,49.68-8.378,69.443-23.129l0.948-0.708l-0.467-1.087
		c-13.556-31.537-40.92-56.79-76.659-66.365c-10.063-2.696-20.174-3.984-30.122-3.984c-25.375,0-49.679,8.378-69.446,23.128
		l-0.948,0.708l0.467,1.087c13.56,31.539,40.92,56.792,76.659,66.365L2052.069,877.221L2052.069,877.221z"/>
	<path style="fill-rule:evenodd;clip-rule:evenodd;fill:#FAB848;" d="M2028.515,765.543c-32.259-8.642-56.952-31.43-69.194-59.904
		c24.837-18.539,57.62-25.924,89.875-17.283c32.264,8.645,56.957,31.434,69.198,59.906
		C2093.558,766.799,2060.778,774.188,2028.515,765.543"/>
	<path style="fill:#663333;" d="M2028.902,764.094c-31.801-8.519-56.133-30.976-68.204-59.047l-1.378,0.593l0.897,1.202
		c17.587-13.128,39.217-20.582,61.786-20.582c8.85,0,17.845,1.146,26.803,3.546c31.806,8.523,56.138,30.98,68.208,59.049
		l1.378-0.592l-0.897-1.202c-17.587,13.126-39.214,20.581-61.784,20.581C2046.86,767.641,2037.863,766.495,2028.902,764.094
		l-0.776,2.898c9.215,2.469,18.475,3.649,27.586,3.649c23.234,0,45.485-7.672,63.579-21.177l0.948-0.708l-0.467-1.087
		c-12.412-28.875-37.466-51.995-70.188-60.762c-9.213-2.469-18.471-3.648-27.58-3.648c-23.232,0-45.486,7.671-63.581,21.177
		l-0.948,0.708l0.468,1.087c12.413,28.877,37.467,51.996,70.184,60.76L2028.902,764.094L2028.902,764.094z"/>
	<path style="fill-rule:evenodd;clip-rule:evenodd;fill:#FAB848;" d="M2237.658,673.647c16.699-28.925,18.049-62.5,6.573-91.29
		c-30.676,4.456-59.08,22.409-75.779,51.334s-18.045,62.5-6.565,91.292C2192.554,720.526,2220.959,702.573,2237.658,673.647"/>
	<path style="fill:#663333;" d="M2238.957,674.397c9.665-16.741,14.263-35.029,14.262-53.067c0-13.567-2.6-26.994-7.595-39.528
		l-0.438-1.099l-1.171,0.17c-31.109,4.516-59.927,22.733-76.863,52.068c-9.664,16.737-14.261,35.021-14.26,53.056
		c0,13.571,2.601,27.003,7.6,39.541l0.438,1.099l1.171-0.17C2193.203,721.95,2222.021,703.734,2238.957,674.397l-2.598-1.5
		c-16.463,28.514-44.455,46.205-74.688,50.602l0.216,1.484l1.393-0.556c-4.859-12.186-7.387-25.243-7.387-38.43
		c0.001-17.527,4.463-35.283,13.858-51.556c16.463-28.514,44.454-46.205,74.696-50.599l-0.216-1.484l-1.394,0.555
		c4.855,12.182,7.382,25.234,7.382,38.417c-0.001,17.53-4.464,35.29-13.861,51.567L2238.957,674.397L2238.957,674.397z"/>
	<path style="fill-rule:evenodd;clip-rule:evenodd;fill:#FAB848;" d="M1839.234,417.098l92.424,183.183
		c18.259-13.13,41.187-19.938,65.328-17.58c30.438,2.975,56.159,19.859,71.488,43.743c-19.656,20.468-48.16,32.055-78.598,29.082
		c-30.438-2.969-56.159-19.853-71.488-43.737L1839.234,417.098z"/>
	<path style="fill:#663333;" d="M1839.234,417.098l-1.339,0.676l93.214,184.75l1.425-1.024
		c15.616-11.229,34.693-17.759,55.013-17.759c3.072,0,6.172,0.149,9.293,0.454c29.966,2.929,55.277,19.546,70.372,43.06l1.262-0.81
		l-1.082-1.039c-17.336,18.05-41.655,29.082-68.07,29.082c-3.074,0-6.177-0.149-9.3-0.454c-29.965-2.924-55.277-19.54-70.372-43.054
		l-1.262,0.81l1.389-0.565l-79.154-194.69L1839.234,417.098l-1.339,0.676L1839.234,417.098l-1.39,0.565l79.206,194.818l0.075,0.117
		c15.564,24.253,41.695,41.405,72.605,44.419c3.22,0.314,6.42,0.469,9.591,0.468c27.258,0,52.354-11.385,70.234-30.004l0.82-0.854
		l-0.639-0.996c-15.564-24.253-41.695-41.405-72.605-44.425c-3.219-0.315-6.417-0.469-9.585-0.468
		c-20.966,0-40.658,6.74-56.765,18.323l0.876,1.218l1.339-0.676l-92.424-183.183l-2.729,1.241L1839.234,417.098z"/>
	<path style="fill-rule:evenodd;clip-rule:evenodd;fill:#FAB848;" d="M2156.298,544.859c7.915-29.54,1.151-59.555-15.822-82.299
		l-154.449-142.533l139.009,150.912c-18.7,12.478-33.117,31.557-39.416,54.982c-7.915,29.54-1.147,59.557,15.825,82.299
		C2127.516,597.011,2148.383,574.401,2156.298,544.859"/>
	<path style="fill:#663333;" d="M2157.747,545.247c2.264-8.448,3.345-16.939,3.345-25.291c0-21.301-7.033-41.702-19.414-58.293
		l-0.083-0.111l-154.552-142.627l-2.121,2.119l139.009,150.912l1.104-1.016l-0.833-1.248c-18.99,12.67-33.637,32.055-40.032,55.84
		c-2.264,8.448-3.345,16.937-3.345,25.288c0,21.303,7.035,41.707,19.417,58.298l0.707,0.948l1.087-0.467
		C2128.511,598.218,2149.709,575.247,2157.747,545.247l-2.897-0.776c-7.793,29.084-28.329,51.333-53.997,62.371l0.593,1.378
		l1.202-0.897c-12.004-16.084-18.822-35.864-18.821-56.504c0-8.092,1.048-16.318,3.243-24.51c6.202-23.064,20.39-41.837,38.8-54.122
		l1.459-0.974l-115.16-125.021l127.292,117.47l1.017-1.102l-1.202,0.897c12.003,16.084,18.819,35.861,18.819,56.499
		c0,8.094-1.048,16.321-3.243,24.515L2157.747,545.247L2157.747,545.247z"/>
	<path style="fill-rule:evenodd;clip-rule:evenodd;fill:#FAB848;" d="M1984.986,420.659c-18.274-21.718-43.727-33.835-69.96-35.8
		l0.35,0.026L1774.371,230.34l128.172,165.343c-2.449,26.075,5.152,53.081,23.348,74.704c20.783,24.702,50.848,36.981,80.789,36.032
		C2012.732,477.081,2005.774,445.36,1984.986,420.659"/>
	<path style="fill:#663333;" d="M1986.134,419.693c-18.542-22.037-44.379-34.338-70.996-36.33l-0.223,2.992l0.35,0.026l3.761,0.279
		l-143.547-157.33l-2.293,1.93l128.172,165.343l1.186-0.919l-1.494-0.14c-0.302,3.213-0.454,6.44-0.453,9.67
		c-0.001,23.362,7.927,46.866,24.147,66.14c20.331,24.165,49.427,36.619,78.712,36.617c1.091,0,2.181-0.017,3.272-0.052l1.183-0.037
		l0.239-1.159c1.418-6.875,2.132-13.878,2.132-20.893C2010.282,462.468,2002.355,438.967,1986.134,419.693l-2.295,1.932
		c15.753,18.72,23.441,41.518,23.442,64.205c0,6.812-0.693,13.612-2.071,20.287l1.469,0.303l-0.047-1.499
		c-1.06,0.033-2.119,0.05-3.178,0.05c-28.442-0.002-56.673-12.084-76.416-35.549c-15.752-18.721-23.441-41.521-23.443-64.208
		c0-3.136,0.147-6.269,0.441-9.389l0.055-0.591l-105.627-136.26l115.803,126.923l1.108-1.011l0.111-1.496l-0.35-0.026l-0.223,2.992
		c25.85,1.938,50.917,13.87,68.924,35.27L1986.134,419.693L1986.134,419.693z"/>
	<path style="fill-rule:evenodd;clip-rule:evenodd;fill:#FAB848;" d="M2295.563,778.786c18.26-31.63,19.736-68.347,7.181-99.828
		c-33.537,4.873-64.594,24.507-82.856,56.135c-18.264,31.628-19.732,68.345-7.186,99.828
		C2246.244,830.049,2277.305,810.413,2295.563,778.786"/>
	<path style="fill:#663333;" d="M2296.863,779.536c10.554-18.282,15.576-38.254,15.575-57.953c0-14.821-2.841-29.489-8.301-43.18
		l-0.438-1.099l-1.17,0.17c-33.971,4.933-65.44,24.831-83.94,56.87c-10.557,18.281-15.578,38.252-15.577,57.951
		c0,14.821,2.84,29.49,8.297,43.182l0.438,1.099l1.171-0.17C2246.893,831.473,2278.367,811.574,2296.863,779.536l-2.598-1.5
		c-18.022,31.215-48.67,50.589-81.778,55.401l0.216,1.484l1.393-0.555c-5.317-13.341-8.084-27.635-8.084-42.072
		c0.001-19.191,4.887-38.633,15.175-56.451c18.026-31.217,48.67-50.589,81.773-55.401l-0.216-1.484l-1.393,0.556
		c5.319,13.339,8.087,27.632,8.087,42.069c-0.001,19.191-4.888,38.635-15.174,56.453L2296.863,779.536L2296.863,779.536z"/>
	<path style="fill:#E69D2A;" d="M1411.51,1382.291c-25.547-220.889-29.206-444.122-31.715-666.669H911.387
		c-0.155,13.747-0.298,27.582-0.438,41.47c0.741-0.122,1.482-0.242,2.222-0.382c6.3-1.191,8.974,8.449,2.658,9.643
		c-1.659,0.314-3.32,0.574-4.982,0.811c-2.364,239.102-3.815,497.471-36.813,738.118c79.943,9.832,177.019,11.797,228.935,11.797
		c75.688,0,247.368-4.172,322.005-30.83C1420.001,1451.659,1415.524,1416.987,1411.51,1382.291z"/>
	<path style="fill-rule:evenodd;clip-rule:evenodd;fill:#F9A827;" d="M1288.59,535.227v99.022
		c0.31,27.111,0.599,54.236,0.904,81.373h202.134c-0.306-27.137-0.596-54.262-0.905-81.373c0-43.495,0-86.991,0-130.486H1288.59
		v29.897V535.227z"/>
	<path style="fill-rule:evenodd;clip-rule:evenodd;fill:#B57317;" d="M1491.628,715.622h-202.134
		c2.509,222.547,31.716,444.308,31.716,666.669c0,99.707-58.676,128.934-207.476,132.7c39.622,1.623,75.724,2.088,101.068,2.088
		c75.688,0,247.368-4.172,322.005-30.83c-4.974-34.59-9.451-69.262-13.465-103.958
		C1497.796,1161.402,1494.137,938.169,1491.628,715.622"/>
	<polygon style="fill-rule:evenodd;clip-rule:evenodd;fill:#663333;" points="1493.068,503.764 1498.07,503.767 1498.074,503.764 	
		"/>
	<rect x="934.544" y="714.545" style="fill-rule:evenodd;clip-rule:evenodd;fill:#D4891A;" width="90.135" height="802.534"/>
	<rect x="966.55" y="679.277" style="fill-rule:evenodd;clip-rule:evenodd;fill:#FAB848;" width="58.129" height="36.345"/>
	<path style="fill-rule:evenodd;clip-rule:evenodd;fill:#663333;" d="M1606.85,697.978c83.596-8.842,119.309-0.546,129.058,107.334
		c6.648,73.553,20.87,314.911-12.944,377.615c-15.024,27.854-43.191,56.647-75.625,75.446
		c-35.038,20.3-78.003,30.807-107.495,17.624c-12.56-145.783-17.128-346.251-19.558-494.06
		C1535.66,735.733,1555.856,703.372,1606.85,697.978 M1490.723,531.113v2.548v1.566v99.022c0.31,27.111,0.6,54.236,0.905,81.371
		c2.509,222.547,6.168,445.782,31.715,666.666c4.014,34.701,8.487,69.369,13.465,103.967
		c-74.633,26.654-246.316,30.826-322.005,30.826c-75.692,0-247.376-4.172-322.009-30.826c31.68-220.131,39.9-429.48,43.469-643.642
		l0.004-0.318c0.698-42,1.223-84.185,1.703-126.673l0.687-61.704c4.716,6.448,9.903,12.517,15.604,17.794
		c12.571,11.646,28.313,19.736,45.906,17.743c50.935-5.771,60.093-83.966,63.232-123.023c0.452-5.648,3.357-27.877,11.229-29.616
		c11.086-2.447,26.142,14.016,30.517,22.85c1.004,2.03,1.854,4.146,2.492,6.321c0.965,3.271,1.465,6.692,1.307,10.104
		c-0.846,18.261-4.485,36.91-7.836,54.861c-5.065,27.103-9.864,53.896-13.281,81.285c-4.931,39.498-8.447,87.382-0.742,126.729
		c5.101,26.065,18.215,57.655,48.787,60.384c37.174,3.32,57.858-39.011,66.562-68.591c13.647-46.348,12.905-100.265,5.605-147.611
		c-5.891-38.202-9.086-92.213,8.494-128.16c4.624-9.453,15.394-25.513,28.052-23.703c18.037,2.576,22.53,33.196,22.392,46.972
		c-0.23,22.379-3.847,44.032-6.188,66.189c-2.311,21.842-3.688,47.442,13.043,64.409c9.511,9.648,22.109,13.597,35.419,13.58
		c10.753-0.014,20.938-3.346,28.969-10.658c16.58-15.105,15.814-38.715,13.353-59.08c-2.258-18.706-6.12-37.164-7.812-55.964
		c-1.21-13.45-2.437-55.163,10.293-64.211c1.636-1.165,3.707-1.407,5.668-1.407H1490.723z M909.974,851.091
		c-2.93,177.523-10.606,355.418-30.572,528.087c-8.868,76.677-18.256,137.186-23.737,170.568
		c-5.474,33.387-7.041,39.646,1.044,48.775c56.394,63.67,659.792,63.67,716.185,0c8.086-9.129,6.522-15.389,1.04-48.775
		c-3.544-21.602-8.729-54.571-14.345-95.924c4.993-7.026,8.367-23.019,17.778-39.452c28.48-49.729,84.87-67.916,128.695-99.056
		c38.329-27.234,85.624-44.572,101.716-88.419c17.966-48.942,10.487-495.899-4.351-548.277
		c-10.257-36.185-22.744-85.495-89.489-78.163c-33.907,3.723-86.993,4.74-136.258,12.341c-17.897,2.763-59.409-5.053-59.409-22.667
		v-66.108l3.941-7.411c16.409-30.84,26.023-69.464,7.371-101.616c-5.192-8.949-12.972-17.221-22.117-23.235
		c6.053-30.421,1.821-61.468-14.882-89.387c-20.549-34.337-56.139-57.306-94.737-66.172c-42.183-9.687-86.151-2.489-123.066,20.115
		c-11.067,6.775-20.327,14.716-29.93,23.33c-2.457,2.207-9.344,8.677-12.297,9.892c-2.723,1.054-20.879-2.399-24.309-2.868
		c-28.012-3.82-52.868,2.169-76.736,16.908c-7.506,4.636-14.373,9.844-21.494,15c-1.568,1.131-4.668,3.438-7.129,4.851
		c-5.287-2.453-10.718-5.692-15.727-8.306c-9.737-5.083-19.958-9.747-30.874-11.537c-12.885-2.111-26.103,1.433-38.599,7.564
		l-20.018-1.131c-0.115-0.016-0.27-0.071-0.377-0.107c-4.648-1.596-13.162-7.933-17.818-10.602
		c-14.444-8.278-28.953-12.367-45.695-12.11c-27.854,0.424-53.861,9.53-71.278,32.188c-21.046,27.387-22.157,65.267-17.569,98.085
		c0.684,4.882,1.509,9.745,2.445,14.583c5.125,26.349,9.951,54.558,6.042,81.395c-1.564,10.691-4.271,21.276-7.042,31.708
		c-4.128,15.528-8.423,30.971-12.293,46.573c-5.427,21.901,2.334,38.057,15.183,44.642c-3.851,15.87-8.113,31.166-10.142,38.805
		c-6.244,23.481-10.324,50.646-12.115,74.803c-2.429,32.722-2.417,82.428,29.568,101.763
		C878.44,864.956,893.782,858.184,909.974,851.091z"/>
	<path style="fill-rule:evenodd;clip-rule:evenodd;fill:#FFFFFF;" d="M1498.07,503.764c37.519-70.522-8.328-98.341-24.694-93.763
		c46.037-110.178-87.195-189.826-184.318-130.361c-21.152,12.95-33.235,30.217-46.62,35.397
		c-11.245,4.354-23.305,0.723-37.888-1.268c-61.327-8.37-82.544,46.746-108.389,36.53c-12.987-5.138-29.825-17.352-44.306-19.726
		c-27.639-4.531-79.468,50.548-97.361,69.001c8.963-19.718,32.426-53.362,41.627-62.252c-19.74-1.113-30.061-23.262-61.927-22.778
		c-66.082,1.006-69.996,60.72-59.969,112.29c16.496,84.83,5.326,95.128-13.596,171.476c-4.275,17.231,4.362,17.289,13.782,7.244
		c5.703-6.087,7.537-14.486,8.744-23.695c5.791,18.795-14.639,89.192-17.601,100.342c-9.138,34.359-37.257,190.542,44.87,138.677
		l1.326-317.115c23.967,143.49,109.864,241.103,124.385,60.476c7.907-98.333,102.878-46.136,100.128,13.117
		c-1.68,36.173-13.286,74.051-21.3,138.266c-31.104,249.271,96.845,171.448,66.046-28.308
		c-33.779-219.071,114.497-224.183,113.314-108.777c-0.639,62.198-24.038,116.601,14.89,116.547
		c28.873-0.038,11.61-48.018,7.304-95.902c-4.291-47.74,4.33-95.418,43.202-95.418
		C1400.482,503.764,1498.07,503.764,1498.07,503.764"/>
	<path style="fill-rule:evenodd;clip-rule:evenodd;fill:#FAB848;" d="M937.97,715.622h38.324h0.023
		c0.111-9.783,0.219-19.579,0.326-29.394c-8.217-3.205-15.743-8.365-22.384-14.518c-5.7-5.277-10.888-11.346-15.604-17.794
		C938.426,674.562,938.204,695.126,937.97,715.622 M1023.637,680.086c-0.131,11.873-0.266,23.715-0.396,35.536h64.169
		c0.139-1.135,0.273-2.265,0.417-3.386c3.417-27.389,8.216-54.182,13.281-81.285c3.351-17.952,6.99-36.6,7.836-54.861
		c0.158-3.412-0.342-6.833-1.307-10.104c-0.639-2.175-1.488-4.291-2.492-6.321c-4.375-8.833-19.431-25.297-30.517-22.85
		c-7.872,1.739-10.777,23.967-11.229,29.616C1060.818,598.521,1054.173,657.036,1023.637,680.086z M1216.533,554.987
		c-17.58,35.947-14.385,89.958-8.494,128.16c1.627,10.551,2.929,21.427,3.814,32.476h70.587c-3.076-1.84-5.962-4.083-8.609-6.768
		c-16.73-16.967-15.354-42.567-13.043-64.409c2.342-22.157,5.958-43.81,6.188-66.189c0.139-13.776-4.354-44.396-22.392-46.972
		C1231.927,529.474,1221.157,545.534,1216.533,554.987z"/>
	<path style="fill-rule:evenodd;clip-rule:evenodd;fill:#D4891A;" d="M939.894,1498.28
		c34.415-256.069,33.565-531.759,36.399-782.658H937.97c-0.48,42.486-1.005,84.673-1.703,126.671c0,0.105,0,0.212,0,0.318
		c-3.572,214.166-11.797,423.511-43.473,643.638C905.861,1490.917,921.913,1494.894,939.894,1498.28z M1282.44,715.622h-70.587
		c3.1,38.525,1.187,79.118-9.42,115.136c-8.704,29.58-29.389,71.912-66.562,68.591c-30.572-2.729-43.687-34.319-48.787-60.384
		c-7.482-38.229-4.379-84.516,0.325-123.343h-64.169h-0.021c-2.857,253.189-1.969,531.618-37.352,789.66
		c40.925,5.033,86.342,8.006,127.894,9.709c148.78-3.767,207.448-32.998,207.448-132.7c0-221.219-28.909-441.843-31.672-663.239
		C1287.081,718.12,1284.707,716.981,1282.44,715.622z"/>
	<path style="fill-rule:evenodd;clip-rule:evenodd;fill:#663333;" d="M999.67,536.426c40.103-45.811,73.053-94.811,127.917-49.276
		C1090.303,378.623,1017.806,483.168,999.67,536.426"/>
	<path style="fill-rule:evenodd;clip-rule:evenodd;fill:#663333;" d="M1476.817,496.827c2.251-29.24,8.578-57.133-31-60.309
		C1503.294,412.271,1490.663,472.529,1476.817,496.827"/>
	<path style="fill-rule:evenodd;clip-rule:evenodd;fill:#663333;" d="M1448.746,396.759
		c-12.587-71.287-73.057-94.811-127.917-49.274C1358.109,238.958,1471.689,312.933,1448.746,396.759"/>
</g>
</svg>
